<svg width="64" height="64" viewBox="0 0 64 64" fill="none" xmlns="http://www.w3.org/2000/svg">
<g clip-path="url(#clip0_2_45)">
<path d="M5.33333 13.3334C2.38773 13.3334 0 15.7334 0 18.6668V56.0001C0 58.9334 2.38781 61.3334 5.33333 61.3334H58.6667C61.6133 61.3334 64 58.9334 64 56.0001V18.6668C64 15.7334 61.6133 13.3334 58.6667 13.3334H5.33333Z" fill="#2980B9"/>
<path d="M7.99996 2.66656C5.05436 2.66656 2.66663 5.06656 2.66663 7.9999V45.3332C2.66663 48.2666 5.05436 50.6666 7.99996 50.6666H37.3333H50.6666H56C58.9466 50.6666 61.3333 48.2666 61.3333 45.3332V21.3332V13.3332C61.3333 10.3999 58.9466 7.9999 56 7.9999H50.6666H37.3333H34.6666L26.6666 2.66656H7.99996Z" fill="#2980B9"/>
<path d="M61.3333 37.3332V15.9999C61.3333 13.0666 58.9466 10.6666 56 10.6666H26.6666H13.3333H7.99996C5.05436 10.6666 2.66663 13.0666 2.66663 15.9999V37.3332H61.3333Z" fill="#BDC3C7"/>
<path d="M5.33333 13.3334C2.38773 13.3334 0 15.7334 0 18.6668V34.6668V37.3334V53.3334C0 56.2668 2.38781 58.6668 5.33333 58.6668H58.6667C61.6133 58.6668 64 56.2668 64 53.3334V37.3334V34.6668V18.6668C64 15.7334 61.6133 13.3334 58.6667 13.3334H5.33333Z" fill="#3498DB"/>
<g clip-path="url(#clip1_2_45)">
<path d="M23.0886 45.4075C26.8151 45.4075 29.8733 42.0224 29.8733 37.8975C29.8733 33.7726 26.8151 30.3875 23.0886 30.3875M23.0886 34.1425C24.9815 34.1425 26.4809 35.8022 26.4809 37.8975C26.4809 39.9928 24.9815 41.6525 23.0886 41.6525" fill="#DEDEDE"/>
<path d="M24.7847 21C21.9657 21 19.6962 23.5121 19.6962 26.6325V45.4075C19.6962 48.5279 21.9657 51.04 24.7847 51.04H38.3543C41.1734 51.04 43.4429 48.5279 43.4429 45.4075V28.51L36.6581 21H24.7847ZM24.7847 22.8775H34.9619V26.6325C34.9619 28.7128 36.4749 30.3875 38.3543 30.3875H41.7467V45.4075C41.7467 47.4878 40.2337 49.1625 38.3543 49.1625H24.7847C22.9054 49.1625 21.3924 47.4878 21.3924 45.4075V26.6325C21.3924 24.5522 22.9054 22.8775 24.7847 22.8775Z" fill="#2980B9"/>
</g>
</g>
<defs>
<clipPath id="clip0_2_45">
<rect width="64" height="64" fill="white"/>
</clipPath>
<clipPath id="clip1_2_45">
<rect width="27.1391" height="30.04" fill="white" transform="translate(18 21)"/>
</clipPath>
</defs>
</svg>
