<svg width="64" height="64" viewBox="0 0 64 64" fill="none" xmlns="http://www.w3.org/2000/svg">
<g clip-path="url(#clip0_2_45)">
<path d="M5.33333 13.3334C2.38773 13.3334 0 15.7334 0 18.6668V56.0001C0 58.9334 2.38781 61.3334 5.33333 61.3334H58.6667C61.6133 61.3334 64 58.9334 64 56.0001V18.6668C64 15.7334 61.6133 13.3334 58.6667 13.3334H5.33333Z" fill="#2980B9"/>
<path d="M7.99996 2.66656C5.05436 2.66656 2.66663 5.06657 2.66663 7.9999V45.3332C2.66663 48.2666 5.05436 50.6666 7.99996 50.6666H37.3333H50.6666H56C58.9466 50.6666 61.3333 48.2666 61.3333 45.3332V21.3332V13.3332C61.3333 10.3999 58.9466 7.9999 56 7.9999H50.6666H37.3333H34.6666L26.6666 2.66656H7.99996Z" fill="#2980B9"/>
<path d="M61.3333 37.3332V15.9999C61.3333 13.0666 58.9466 10.6666 56 10.6666H26.6666H13.3333H7.99996C5.05436 10.6666 2.66663 13.0666 2.66663 15.9999V37.3332H61.3333Z" fill="#BDC3C7"/>
<path d="M5.33333 13.3334C2.38773 13.3334 0 15.7334 0 18.6668V34.6668V37.3334V53.3334C0 56.2668 2.38781 58.6668 5.33333 58.6668H58.6667C61.6133 58.6668 64 56.2668 64 53.3334V37.3334V34.6668V18.6668C64 15.7334 61.6133 13.3334 58.6667 13.3334H5.33333Z" fill="#3498DB"/>
<path d="M44.5367 29.4211L31.7983 21L19.0599 29.4211L31.7983 37.8469L44.5367 29.4211Z" fill="#2980B9"/>
<path d="M44.5962 36.8322L31.7981 45.298L19 36.8322V39.5754L31.7981 48.04L44.5962 39.5754V36.8322Z" fill="#2980B9"/>
<path d="M44.5962 41.8322L31.7981 50.298L19 41.8322V44.5754L31.7981 53.04L44.5962 44.5754V41.8322Z" fill="#2980B9"/>
<path d="M44.5962 31.7398L41.914 33.5141L31.7981 40.2056L21.6823 33.5141L19 31.7398V34.4818L31.7981 42.9476L44.5962 34.4818V31.7398Z" fill="#DEDEDE"/>
</g>
<defs>
<clipPath id="clip0_2_45">
<rect width="64" height="64" fill="white"/>
</clipPath>
</defs>
</svg>
